<?xml version="1.0" encoding="utf-8" standalone="no"?>
<!DOCTYPE svg PUBLIC "-//W3C//DTD SVG 1.1//EN"
  "http://www.w3.org/Graphics/SVG/1.1/DTD/svg11.dtd">
<svg xmlns:xlink="http://www.w3.org/1999/xlink" width="950.4pt" height="446.4pt" viewBox="0 0 950.4 446.4" xmlns="http://www.w3.org/2000/svg" version="1.1">
 <metadata>
  <rdf:RDF xmlns:dc="http://purl.org/dc/elements/1.1/" xmlns:cc="http://creativecommons.org/ns#" xmlns:rdf="http://www.w3.org/1999/02/22-rdf-syntax-ns#">
   <cc:Work>
    <dc:type rdf:resource="http://purl.org/dc/dcmitype/StillImage"/>
    <dc:date>2025-05-27T23:35:05.655172</dc:date>
    <dc:format>image/svg+xml</dc:format>
    <dc:creator>
     <cc:Agent>
      <dc:title>Matplotlib v3.9.2, https://matplotlib.org/</dc:title>
     </cc:Agent>
    </dc:creator>
   </cc:Work>
  </rdf:RDF>
 </metadata>
 <defs>
  <style type="text/css">*{stroke-linejoin: round; stroke-linecap: butt}</style>
 </defs>
 <g id="figure_1">
  <g id="patch_1">
   <path d="M 0 446.4 
L 950.4 446.4 
L 950.4 0 
L 0 0 
z
" style="fill: #ffffff"/>
  </g>
  <g id="axes_1">
   <g id="line2d_1">
    <path d="M 79.2 79.2 
L 871.2 79.2 
" clip-path="url(#p0546f0d6e9)" style="fill: none; stroke: #000000; stroke-width: 1.5; stroke-linecap: square"/>
   </g>
   <g id="line2d_2">
    <path d="M 79.2 151.2 
L 871.2 151.2 
" clip-path="url(#p0546f0d6e9)" style="fill: none; stroke: #000000; stroke-width: 1.5; stroke-linecap: square"/>
   </g>
   <g id="line2d_3">
    <path d="M 79.2 223.2 
L 871.2 223.2 
" clip-path="url(#p0546f0d6e9)" style="fill: none; stroke: #000000; stroke-width: 1.5; stroke-linecap: square"/>
   </g>
   <g id="line2d_4">
    <path d="M 79.2 295.2 
L 871.2 295.2 
" clip-path="url(#p0546f0d6e9)" style="fill: none; stroke: #000000; stroke-width: 1.5; stroke-linecap: square"/>
   </g>
   <g id="line2d_5">
    <path d="M 79.2 367.2 
L 871.2 367.2 
" clip-path="url(#p0546f0d6e9)" style="fill: none; stroke: #000000; stroke-width: 1.5; stroke-linecap: square"/>
   </g>
   <g id="line2d_6">
    <path d="M 151.2 79.2 
L 151.2 151.2 
" clip-path="url(#p0546f0d6e9)" style="fill: none; stroke: #000000; stroke-width: 1.5; stroke-linecap: square"/>
   </g>
   <g id="line2d_7">
    <path d="M 223.2 79.2 
L 223.2 223.2 
" clip-path="url(#p0546f0d6e9)" style="fill: none; stroke: #000000; stroke-width: 1.5; stroke-linecap: square"/>
   </g>
   <g id="line2d_8">
    <path d="M 295.2 79.2 
L 295.2 151.2 
" clip-path="url(#p0546f0d6e9)" style="fill: none; stroke: #000000; stroke-width: 1.5; stroke-linecap: square"/>
   </g>
   <g id="line2d_9">
    <path d="M 583.2 79.2 
L 583.2 367.2 
" clip-path="url(#p0546f0d6e9)" style="fill: none; stroke: #000000; stroke-width: 1.5; stroke-linecap: square"/>
   </g>
   <g id="line2d_10">
    <path d="M 655.2 79.2 
L 655.2 223.2 
" clip-path="url(#p0546f0d6e9)" style="fill: none; stroke: #000000; stroke-width: 1.5; stroke-linecap: square"/>
   </g>
   <g id="line2d_11">
    <path d="M 727.2 79.2 
L 727.2 223.2 
" clip-path="url(#p0546f0d6e9)" style="fill: none; stroke: #000000; stroke-width: 1.5; stroke-linecap: square"/>
   </g>
   <g id="line2d_12">
    <path d="M 799.2 79.2 
L 799.2 151.2 
" clip-path="url(#p0546f0d6e9)" style="fill: none; stroke: #000000; stroke-width: 1.5; stroke-linecap: square"/>
   </g>
   <g id="patch_2">
    <path d="M 858.6 124.2 
L 883.8 124.2 
Q 898.2 124.2 898.2 138.6 
L 898.2 163.8 
Q 898.2 178.2 883.8 178.2 
L 858.6 178.2 
Q 844.2 178.2 844.2 163.8 
L 844.2 138.6 
Q 844.2 124.2 858.6 124.2 
z
" clip-path="url(#p0546f0d6e9)" style="fill: #ffffff; stroke: #000000; stroke-width: 3; stroke-linejoin: miter"/>
   </g>
   <g id="patch_3">
    <path d="M 858.6 196.2 
L 883.8 196.2 
Q 898.2 196.2 898.2 210.6 
L 898.2 235.8 
Q 898.2 250.2 883.8 250.2 
L 858.6 250.2 
Q 844.2 250.2 844.2 235.8 
L 844.2 210.6 
Q 844.2 196.2 858.6 196.2 
z
" clip-path="url(#p0546f0d6e9)" style="fill: #ffffff; stroke: #000000; stroke-width: 3; stroke-linejoin: miter"/>
   </g>
   <g id="text_1">
    <!-- 2 -->
    <g transform="translate(38.74625 83.063125) scale(0.14 -0.14)">
     <defs>
      <path id="DejaVuSans-32" d="M 1228 531 
L 3431 531 
L 3431 0 
L 469 0 
L 469 531 
Q 828 903 1448 1529 
Q 2069 2156 2228 2338 
Q 2531 2678 2651 2914 
Q 2772 3150 2772 3378 
Q 2772 3750 2511 3984 
Q 2250 4219 1831 4219 
Q 1534 4219 1204 4116 
Q 875 4013 500 3803 
L 500 4441 
Q 881 4594 1212 4672 
Q 1544 4750 1819 4750 
Q 2544 4750 2975 4387 
Q 3406 4025 3406 3419 
Q 3406 3131 3298 2873 
Q 3191 2616 2906 2266 
Q 2828 2175 2409 1742 
Q 1991 1309 1228 531 
z
" transform="scale(0.015625)"/>
     </defs>
     <use xlink:href="#DejaVuSans-32"/>
    </g>
   </g>
   <g id="text_2">
    <!-- 1 -->
    <g transform="translate(38.74625 155.063125) scale(0.14 -0.14)">
     <defs>
      <path id="DejaVuSans-31" d="M 794 531 
L 1825 531 
L 1825 4091 
L 703 3866 
L 703 4441 
L 1819 4666 
L 2450 4666 
L 2450 531 
L 3481 531 
L 3481 0 
L 794 0 
L 794 531 
z
" transform="scale(0.015625)"/>
     </defs>
     <use xlink:href="#DejaVuSans-31"/>
    </g>
   </g>
   <g id="text_3">
    <!-- 0 -->
    <g transform="translate(38.74625 227.063125) scale(0.14 -0.14)">
     <defs>
      <path id="DejaVuSans-30" d="M 2034 4250 
Q 1547 4250 1301 3770 
Q 1056 3291 1056 2328 
Q 1056 1369 1301 889 
Q 1547 409 2034 409 
Q 2525 409 2770 889 
Q 3016 1369 3016 2328 
Q 3016 3291 2770 3770 
Q 2525 4250 2034 4250 
z
M 2034 4750 
Q 2819 4750 3233 4129 
Q 3647 3509 3647 2328 
Q 3647 1150 3233 529 
Q 2819 -91 2034 -91 
Q 1250 -91 836 529 
Q 422 1150 422 2328 
Q 422 3509 836 4129 
Q 1250 4750 2034 4750 
z
" transform="scale(0.015625)"/>
     </defs>
     <use xlink:href="#DejaVuSans-30"/>
    </g>
   </g>
   <g id="text_4">
    <!-- 3 -->
    <g transform="translate(38.74625 299.063125) scale(0.14 -0.14)">
     <defs>
      <path id="DejaVuSans-33" d="M 2597 2516 
Q 3050 2419 3304 2112 
Q 3559 1806 3559 1356 
Q 3559 666 3084 287 
Q 2609 -91 1734 -91 
Q 1441 -91 1130 -33 
Q 819 25 488 141 
L 488 750 
Q 750 597 1062 519 
Q 1375 441 1716 441 
Q 2309 441 2620 675 
Q 2931 909 2931 1356 
Q 2931 1769 2642 2001 
Q 2353 2234 1838 2234 
L 1294 2234 
L 1294 2753 
L 1863 2753 
Q 2328 2753 2575 2939 
Q 2822 3125 2822 3475 
Q 2822 3834 2567 4026 
Q 2313 4219 1838 4219 
Q 1578 4219 1281 4162 
Q 984 4106 628 3988 
L 628 4550 
Q 988 4650 1302 4700 
Q 1616 4750 1894 4750 
Q 2613 4750 3031 4423 
Q 3450 4097 3450 3541 
Q 3450 3153 3228 2886 
Q 3006 2619 2597 2516 
z
" transform="scale(0.015625)"/>
     </defs>
     <use xlink:href="#DejaVuSans-33"/>
    </g>
   </g>
   <g id="text_5">
    <!-- 4 -->
    <g transform="translate(38.74625 371.063125) scale(0.14 -0.14)">
     <defs>
      <path id="DejaVuSans-34" d="M 2419 4116 
L 825 1625 
L 2419 1625 
L 2419 4116 
z
M 2253 4666 
L 3047 4666 
L 3047 1625 
L 3713 1625 
L 3713 1100 
L 3047 1100 
L 3047 0 
L 2419 0 
L 2419 1100 
L 313 1100 
L 313 1709 
L 2253 4666 
z
" transform="scale(0.015625)"/>
     </defs>
     <use xlink:href="#DejaVuSans-34"/>
    </g>
   </g>
   <g id="patch_4">
    <path d="M 151.2 72 
C 153.109462 72 154.940975 72.758637 156.291169 74.108831 
C 157.641363 75.459025 158.4 77.290538 158.4 79.2 
C 158.4 81.109462 157.641363 82.940975 156.291169 84.291169 
C 154.940975 85.641363 153.109462 86.4 151.2 86.4 
C 149.290538 86.4 147.459025 85.641363 146.108831 84.291169 
C 144.758637 82.940975 144 81.109462 144 79.2 
C 144 77.290538 144.758637 75.459025 146.108831 74.108831 
C 147.459025 72.758637 149.290538 72 151.2 72 
z
" clip-path="url(#p0546f0d6e9)" style="stroke: #000000; stroke-width: 3; stroke-linejoin: miter"/>
   </g>
   <g id="patch_5">
    <path d="M 151.2 144 
C 153.109462 144 154.940975 144.758637 156.291169 146.108831 
C 157.641363 147.459025 158.4 149.290538 158.4 151.2 
C 158.4 153.109462 157.641363 154.940975 156.291169 156.291169 
C 154.940975 157.641363 153.109462 158.4 151.2 158.4 
C 149.290538 158.4 147.459025 157.641363 146.108831 156.291169 
C 144.758637 154.940975 144 153.109462 144 151.2 
C 144 149.290538 144.758637 147.459025 146.108831 146.108831 
C 147.459025 144.758637 149.290538 144 151.2 144 
z
" clip-path="url(#p0546f0d6e9)" style="stroke: #000000; stroke-width: 3; stroke-linejoin: miter"/>
   </g>
   <g id="patch_6">
    <path d="M 223.2 216 
C 225.109462 216 226.940975 216.758637 228.291169 218.108831 
C 229.641363 219.459025 230.4 221.290538 230.4 223.2 
C 230.4 225.109462 229.641363 226.940975 228.291169 228.291169 
C 226.940975 229.641363 225.109462 230.4 223.2 230.4 
C 221.290538 230.4 219.459025 229.641363 218.108831 228.291169 
C 216.758637 226.940975 216 225.109462 216 223.2 
C 216 221.290538 216.758637 219.459025 218.108831 218.108831 
C 219.459025 216.758637 221.290538 216 223.2 216 
z
" clip-path="url(#p0546f0d6e9)" style="stroke: #000000; stroke-width: 3; stroke-linejoin: miter"/>
   </g>
   <g id="patch_7">
    <path d="M 223.2 72 
C 225.109462 72 226.940975 72.758637 228.291169 74.108831 
C 229.641363 75.459025 230.4 77.290538 230.4 79.2 
C 230.4 81.109462 229.641363 82.940975 228.291169 84.291169 
C 226.940975 85.641363 225.109462 86.4 223.2 86.4 
C 221.290538 86.4 219.459025 85.641363 218.108831 84.291169 
C 216.758637 82.940975 216 81.109462 216 79.2 
C 216 77.290538 216.758637 75.459025 218.108831 74.108831 
C 219.459025 72.758637 221.290538 72 223.2 72 
z
" clip-path="url(#p0546f0d6e9)" style="stroke: #000000; stroke-width: 3; stroke-linejoin: miter"/>
   </g>
   <g id="patch_8">
    <path d="M 295.2 72 
C 297.109462 72 298.940975 72.758637 300.291169 74.108831 
C 301.641363 75.459025 302.4 77.290538 302.4 79.2 
C 302.4 81.109462 301.641363 82.940975 300.291169 84.291169 
C 298.940975 85.641363 297.109462 86.4 295.2 86.4 
C 293.290538 86.4 291.459025 85.641363 290.108831 84.291169 
C 288.758637 82.940975 288 81.109462 288 79.2 
C 288 77.290538 288.758637 75.459025 290.108831 74.108831 
C 291.459025 72.758637 293.290538 72 295.2 72 
z
" clip-path="url(#p0546f0d6e9)" style="stroke: #000000; stroke-width: 3; stroke-linejoin: miter"/>
   </g>
   <g id="patch_9">
    <path d="M 295.2 144 
C 297.109462 144 298.940975 144.758637 300.291169 146.108831 
C 301.641363 147.459025 302.4 149.290538 302.4 151.2 
C 302.4 153.109462 301.641363 154.940975 300.291169 156.291169 
C 298.940975 157.641363 297.109462 158.4 295.2 158.4 
C 293.290538 158.4 291.459025 157.641363 290.108831 156.291169 
C 288.758637 154.940975 288 153.109462 288 151.2 
C 288 149.290538 288.758637 147.459025 290.108831 146.108831 
C 291.459025 144.758637 293.290538 144 295.2 144 
z
" clip-path="url(#p0546f0d6e9)" style="stroke: #000000; stroke-width: 3; stroke-linejoin: miter"/>
   </g>
   <g id="patch_10">
    <path d="M 583.2 360 
C 585.109462 360 586.940975 360.758637 588.291169 362.108831 
C 589.641363 363.459025 590.4 365.290538 590.4 367.2 
C 590.4 369.109462 589.641363 370.940975 588.291169 372.291169 
C 586.940975 373.641363 585.109462 374.4 583.2 374.4 
C 581.290538 374.4 579.459025 373.641363 578.108831 372.291169 
C 576.758637 370.940975 576 369.109462 576 367.2 
C 576 365.290538 576.758637 363.459025 578.108831 362.108831 
C 579.459025 360.758637 581.290538 360 583.2 360 
z
" clip-path="url(#p0546f0d6e9)" style="stroke: #000000; stroke-width: 3; stroke-linejoin: miter"/>
   </g>
   <g id="patch_11">
    <path d="M 583.2 72 
C 585.109462 72 586.940975 72.758637 588.291169 74.108831 
C 589.641363 75.459025 590.4 77.290538 590.4 79.2 
C 590.4 81.109462 589.641363 82.940975 588.291169 84.291169 
C 586.940975 85.641363 585.109462 86.4 583.2 86.4 
C 581.290538 86.4 579.459025 85.641363 578.108831 84.291169 
C 576.758637 82.940975 576 81.109462 576 79.2 
C 576 77.290538 576.758637 75.459025 578.108831 74.108831 
C 579.459025 72.758637 581.290538 72 583.2 72 
z
" clip-path="url(#p0546f0d6e9)" style="stroke: #000000; stroke-width: 3; stroke-linejoin: miter"/>
   </g>
   <g id="patch_12">
    <path d="M 655.2 216 
C 657.109462 216 658.940975 216.758637 660.291169 218.108831 
C 661.641363 219.459025 662.4 221.290538 662.4 223.2 
C 662.4 225.109462 661.641363 226.940975 660.291169 228.291169 
C 658.940975 229.641363 657.109462 230.4 655.2 230.4 
C 653.290538 230.4 651.459025 229.641363 650.108831 228.291169 
C 648.758637 226.940975 648 225.109462 648 223.2 
C 648 221.290538 648.758637 219.459025 650.108831 218.108831 
C 651.459025 216.758637 653.290538 216 655.2 216 
z
" clip-path="url(#p0546f0d6e9)" style="stroke: #000000; stroke-width: 3; stroke-linejoin: miter"/>
   </g>
   <g id="patch_13">
    <path d="M 655.2 72 
C 657.109462 72 658.940975 72.758637 660.291169 74.108831 
C 661.641363 75.459025 662.4 77.290538 662.4 79.2 
C 662.4 81.109462 661.641363 82.940975 660.291169 84.291169 
C 658.940975 85.641363 657.109462 86.4 655.2 86.4 
C 653.290538 86.4 651.459025 85.641363 650.108831 84.291169 
C 648.758637 82.940975 648 81.109462 648 79.2 
C 648 77.290538 648.758637 75.459025 650.108831 74.108831 
C 651.459025 72.758637 653.290538 72 655.2 72 
z
" clip-path="url(#p0546f0d6e9)" style="stroke: #000000; stroke-width: 3; stroke-linejoin: miter"/>
   </g>
   <g id="patch_14">
    <path d="M 727.2 72 
C 729.109462 72 730.940975 72.758637 732.291169 74.108831 
C 733.641363 75.459025 734.4 77.290538 734.4 79.2 
C 734.4 81.109462 733.641363 82.940975 732.291169 84.291169 
C 730.940975 85.641363 729.109462 86.4 727.2 86.4 
C 725.290538 86.4 723.459025 85.641363 722.108831 84.291169 
C 720.758637 82.940975 720 81.109462 720 79.2 
C 720 77.290538 720.758637 75.459025 722.108831 74.108831 
C 723.459025 72.758637 725.290538 72 727.2 72 
z
" clip-path="url(#p0546f0d6e9)" style="stroke: #000000; stroke-width: 3; stroke-linejoin: miter"/>
   </g>
   <g id="patch_15">
    <path d="M 727.2 216 
C 729.109462 216 730.940975 216.758637 732.291169 218.108831 
C 733.641363 219.459025 734.4 221.290538 734.4 223.2 
C 734.4 225.109462 733.641363 226.940975 732.291169 228.291169 
C 730.940975 229.641363 729.109462 230.4 727.2 230.4 
C 725.290538 230.4 723.459025 229.641363 722.108831 228.291169 
C 720.758637 226.940975 720 225.109462 720 223.2 
C 720 221.290538 720.758637 219.459025 722.108831 218.108831 
C 723.459025 216.758637 725.290538 216 727.2 216 
z
" clip-path="url(#p0546f0d6e9)" style="stroke: #000000; stroke-width: 3; stroke-linejoin: miter"/>
   </g>
   <g id="patch_16">
    <path d="M 799.2 144 
C 801.109462 144 802.940975 144.758637 804.291169 146.108831 
C 805.641363 147.459025 806.4 149.290538 806.4 151.2 
C 806.4 153.109462 805.641363 154.940975 804.291169 156.291169 
C 802.940975 157.641363 801.109462 158.4 799.2 158.4 
C 797.290538 158.4 795.459025 157.641363 794.108831 156.291169 
C 792.758637 154.940975 792 153.109462 792 151.2 
C 792 149.290538 792.758637 147.459025 794.108831 146.108831 
C 795.459025 144.758637 797.290538 144 799.2 144 
z
" clip-path="url(#p0546f0d6e9)" style="stroke: #000000; stroke-width: 3; stroke-linejoin: miter"/>
   </g>
   <g id="patch_17">
    <path d="M 799.2 72 
C 801.109462 72 802.940975 72.758637 804.291169 74.108831 
C 805.641363 75.459025 806.4 77.290538 806.4 79.2 
C 806.4 81.109462 805.641363 82.940975 804.291169 84.291169 
C 802.940975 85.641363 801.109462 86.4 799.2 86.4 
C 797.290538 86.4 795.459025 85.641363 794.108831 84.291169 
C 792.758637 82.940975 792 81.109462 792 79.2 
C 792 77.290538 792.758637 75.459025 794.108831 74.108831 
C 795.459025 72.758637 797.290538 72 799.2 72 
z
" clip-path="url(#p0546f0d6e9)" style="stroke: #000000; stroke-width: 3; stroke-linejoin: miter"/>
   </g>
   <g id="patch_18">
    <path d="M 855 159.3 
C 855 155.363046 856.707946 151.583311 859.74487 148.799464 
C 862.781794 146.015617 866.905141 144.45 871.2 144.45 
C 875.494859 144.45 879.618206 146.015617 882.65513 148.799464 
C 885.692054 151.583311 887.4 155.363046 887.4 159.3 
" clip-path="url(#p0546f0d6e9)" style="fill: none; stroke: #000000; stroke-width: 3; stroke-linejoin: miter"/>
   </g>
   <g id="patch_19">
    <path d="M 855 231.3 
C 855 227.363046 856.707946 223.583311 859.74487 220.799464 
C 862.781794 218.015617 866.905141 216.45 871.2 216.45 
C 875.494859 216.45 879.618206 218.015617 882.65513 220.799464 
C 885.692054 223.583311 887.4 227.363046 887.4 231.3 
" clip-path="url(#p0546f0d6e9)" style="fill: none; stroke: #000000; stroke-width: 3; stroke-linejoin: miter"/>
   </g>
   <g id="patch_20">
    <path d="M 138.6 268.2 
L 163.8 268.2 
Q 178.2 268.2 178.2 282.6 
L 178.2 307.8 
Q 178.2 322.2 163.8 322.2 
L 138.6 322.2 
Q 124.2 322.2 124.2 307.8 
L 124.2 282.6 
Q 124.2 268.2 138.6 268.2 
z
" clip-path="url(#p0546f0d6e9)" style="fill: #ffffff; stroke: #000000; stroke-width: 3; stroke-linejoin: miter"/>
   </g>
   <g id="patch_21">
    <path d="M 210.6 268.2 
L 235.8 268.2 
Q 250.2 268.2 250.2 282.6 
L 250.2 307.8 
Q 250.2 322.2 235.8 322.2 
L 210.6 322.2 
Q 196.2 322.2 196.2 307.8 
L 196.2 282.6 
Q 196.2 268.2 210.6 268.2 
z
" clip-path="url(#p0546f0d6e9)" style="fill: #ffffff; stroke: #000000; stroke-width: 3; stroke-linejoin: miter"/>
   </g>
   <g id="patch_22">
    <path d="M 282.6 196.2 
L 307.8 196.2 
Q 322.2 196.2 322.2 210.6 
L 322.2 235.8 
Q 322.2 250.2 307.8 250.2 
L 282.6 250.2 
Q 268.2 250.2 268.2 235.8 
L 268.2 210.6 
Q 268.2 196.2 282.6 196.2 
z
" clip-path="url(#p0546f0d6e9)" style="fill: #ffffff; stroke: #000000; stroke-width: 3; stroke-linejoin: miter"/>
   </g>
   <g id="patch_23">
    <path d="M 282.6 268.2 
L 307.8 268.2 
Q 322.2 268.2 322.2 282.6 
L 322.2 307.8 
Q 322.2 322.2 307.8 322.2 
L 282.6 322.2 
Q 268.2 322.2 268.2 307.8 
L 268.2 282.6 
Q 268.2 268.2 282.6 268.2 
z
" clip-path="url(#p0546f0d6e9)" style="fill: #ffffff; stroke: #000000; stroke-width: 3; stroke-linejoin: miter"/>
   </g>
   <g id="patch_24">
    <path d="M 354.6 196.2 
L 379.8 196.2 
Q 394.2 196.2 394.2 210.6 
L 394.2 235.8 
Q 394.2 250.2 379.8 250.2 
L 354.6 250.2 
Q 340.2 250.2 340.2 235.8 
L 340.2 210.6 
Q 340.2 196.2 354.6 196.2 
z
" clip-path="url(#p0546f0d6e9)" style="fill: #ffffff; stroke: #000000; stroke-width: 3; stroke-linejoin: miter"/>
   </g>
   <g id="patch_25">
    <path d="M 354.6 52.2 
L 379.8 52.2 
Q 394.2 52.2 394.2 66.6 
L 394.2 91.8 
Q 394.2 106.2 379.8 106.2 
L 354.6 106.2 
Q 340.2 106.2 340.2 91.8 
L 340.2 66.6 
Q 340.2 52.2 354.6 52.2 
z
" clip-path="url(#p0546f0d6e9)" style="fill: #ffffff; stroke: #000000; stroke-width: 3; stroke-linejoin: miter"/>
   </g>
   <g id="patch_26">
    <path d="M 426.6 196.2 
L 451.8 196.2 
Q 466.2 196.2 466.2 210.6 
L 466.2 235.8 
Q 466.2 250.2 451.8 250.2 
L 426.6 250.2 
Q 412.2 250.2 412.2 235.8 
L 412.2 210.6 
Q 412.2 196.2 426.6 196.2 
z
" clip-path="url(#p0546f0d6e9)" style="fill: #ffffff; stroke: #000000; stroke-width: 3; stroke-linejoin: miter"/>
   </g>
   <g id="patch_27">
    <path d="M 426.6 52.2 
L 451.8 52.2 
Q 466.2 52.2 466.2 66.6 
L 466.2 91.8 
Q 466.2 106.2 451.8 106.2 
L 426.6 106.2 
Q 412.2 106.2 412.2 91.8 
L 412.2 66.6 
Q 412.2 52.2 426.6 52.2 
z
" clip-path="url(#p0546f0d6e9)" style="fill: #ffffff; stroke: #000000; stroke-width: 3; stroke-linejoin: miter"/>
   </g>
   <g id="patch_28">
    <path d="M 498.6 52.2 
L 523.8 52.2 
Q 538.2 52.2 538.2 66.6 
L 538.2 91.8 
Q 538.2 106.2 523.8 106.2 
L 498.6 106.2 
Q 484.2 106.2 484.2 91.8 
L 484.2 66.6 
Q 484.2 52.2 498.6 52.2 
z
" clip-path="url(#p0546f0d6e9)" style="fill: #ffffff; stroke: #000000; stroke-width: 3; stroke-linejoin: miter"/>
   </g>
   <g id="patch_29">
    <path d="M 884.50927 131.717884 
L 876.405961 138.663577 
L 879.26913 140.381478 
L 863.06913 167.381478 
L 863.13087 167.418522 
L 879.33087 140.418522 
L 882.194039 142.136423 
z
" clip-path="url(#p0546f0d6e9)" style="fill: #ffffff; stroke: #000000; stroke-width: 3; stroke-linejoin: miter"/>
   </g>
   <g id="patch_30">
    <path d="M 884.50927 203.717884 
L 876.405961 210.663577 
L 879.26913 212.381478 
L 863.06913 239.381478 
L 863.13087 239.418522 
L 879.33087 212.418522 
L 882.194039 214.136423 
z
" clip-path="url(#p0546f0d6e9)" style="fill: #ffffff; stroke: #000000; stroke-width: 3; stroke-linejoin: miter"/>
   </g>
   <g id="text_6">
    <!-- RZ -->
    <g transform="translate(141.541094 299.063125) scale(0.14 -0.14)">
     <defs>
      <path id="DejaVuSans-52" d="M 2841 2188 
Q 3044 2119 3236 1894 
Q 3428 1669 3622 1275 
L 4263 0 
L 3584 0 
L 2988 1197 
Q 2756 1666 2539 1819 
Q 2322 1972 1947 1972 
L 1259 1972 
L 1259 0 
L 628 0 
L 628 4666 
L 2053 4666 
Q 2853 4666 3247 4331 
Q 3641 3997 3641 3322 
Q 3641 2881 3436 2590 
Q 3231 2300 2841 2188 
z
M 1259 4147 
L 1259 2491 
L 2053 2491 
Q 2509 2491 2742 2702 
Q 2975 2913 2975 3322 
Q 2975 3731 2742 3939 
Q 2509 4147 2053 4147 
L 1259 4147 
z
" transform="scale(0.015625)"/>
      <path id="DejaVuSans-5a" d="M 359 4666 
L 4025 4666 
L 4025 4184 
L 1075 531 
L 4097 531 
L 4097 0 
L 288 0 
L 288 481 
L 3238 4134 
L 359 4134 
L 359 4666 
z
" transform="scale(0.015625)"/>
     </defs>
     <use xlink:href="#DejaVuSans-52"/>
     <use xlink:href="#DejaVuSans-5a" x="69.482422"/>
    </g>
   </g>
   <g id="text_7">
    <!-- RX -->
    <g transform="translate(213.541094 299.063125) scale(0.14 -0.14)">
     <defs>
      <path id="DejaVuSans-58" d="M 403 4666 
L 1081 4666 
L 2241 2931 
L 3406 4666 
L 4084 4666 
L 2584 2425 
L 4184 0 
L 3506 0 
L 2194 1984 
L 872 0 
L 191 0 
L 1856 2491 
L 403 4666 
z
" transform="scale(0.015625)"/>
     </defs>
     <use xlink:href="#DejaVuSans-52"/>
     <use xlink:href="#DejaVuSans-58" x="69.482422"/>
    </g>
   </g>
   <g id="text_8">
    <!-- RZ -->
    <g transform="translate(285.541094 227.063125) scale(0.14 -0.14)">
     <use xlink:href="#DejaVuSans-52"/>
     <use xlink:href="#DejaVuSans-5a" x="69.482422"/>
    </g>
   </g>
   <g id="text_9">
    <!-- RZ -->
    <g transform="translate(285.541094 299.063125) scale(0.14 -0.14)">
     <use xlink:href="#DejaVuSans-52"/>
     <use xlink:href="#DejaVuSans-5a" x="69.482422"/>
    </g>
   </g>
   <g id="text_10">
    <!-- RX -->
    <g transform="translate(357.541094 227.063125) scale(0.14 -0.14)">
     <use xlink:href="#DejaVuSans-52"/>
     <use xlink:href="#DejaVuSans-58" x="69.482422"/>
    </g>
   </g>
   <g id="text_11">
    <!-- RZ -->
    <g transform="translate(357.541094 83.063125) scale(0.14 -0.14)">
     <use xlink:href="#DejaVuSans-52"/>
     <use xlink:href="#DejaVuSans-5a" x="69.482422"/>
    </g>
   </g>
   <g id="text_12">
    <!-- RZ -->
    <g transform="translate(429.541094 227.063125) scale(0.14 -0.14)">
     <use xlink:href="#DejaVuSans-52"/>
     <use xlink:href="#DejaVuSans-5a" x="69.482422"/>
    </g>
   </g>
   <g id="text_13">
    <!-- RX -->
    <g transform="translate(429.541094 83.063125) scale(0.14 -0.14)">
     <use xlink:href="#DejaVuSans-52"/>
     <use xlink:href="#DejaVuSans-58" x="69.482422"/>
    </g>
   </g>
   <g id="text_14">
    <!-- RZ -->
    <g transform="translate(501.541094 83.063125) scale(0.14 -0.14)">
     <use xlink:href="#DejaVuSans-52"/>
     <use xlink:href="#DejaVuSans-5a" x="69.482422"/>
    </g>
   </g>
  </g>
 </g>
 <defs>
  <clipPath id="p0546f0d6e9">
   <rect x="7.2" y="7.2" width="936" height="432"/>
  </clipPath>
 </defs>
</svg>
