<?xml version="1.0" encoding="utf-8" standalone="no"?>
<!DOCTYPE svg PUBLIC "-//W3C//DTD SVG 1.1//EN"
  "http://www.w3.org/Graphics/SVG/1.1/DTD/svg11.dtd">
<svg xmlns:xlink="http://www.w3.org/1999/xlink" width="1094.4pt" height="446.4pt" viewBox="0 0 1094.4 446.4" xmlns="http://www.w3.org/2000/svg" version="1.1">
 <metadata>
  <rdf:RDF xmlns:dc="http://purl.org/dc/elements/1.1/" xmlns:cc="http://creativecommons.org/ns#" xmlns:rdf="http://www.w3.org/1999/02/22-rdf-syntax-ns#">
   <cc:Work>
    <dc:type rdf:resource="http://purl.org/dc/dcmitype/StillImage"/>
    <dc:date>2025-05-27T23:43:50.901157</dc:date>
    <dc:format>image/svg+xml</dc:format>
    <dc:creator>
     <cc:Agent>
      <dc:title>Matplotlib v3.9.2, https://matplotlib.org/</dc:title>
     </cc:Agent>
    </dc:creator>
   </cc:Work>
  </rdf:RDF>
 </metadata>
 <defs>
  <style type="text/css">*{stroke-linejoin: round; stroke-linecap: butt}</style>
 </defs>
 <g id="figure_1">
  <g id="patch_1">
   <path d="M 0 446.4 
L 1094.4 446.4 
L 1094.4 0 
L 0 0 
z
" style="fill: #ffffff"/>
  </g>
  <g id="axes_1">
   <g id="line2d_1">
    <path d="M 79.2 79.2 
L 1015.2 79.2 
" clip-path="url(#p72ab648a10)" style="fill: none; stroke: #000000; stroke-width: 1.5; stroke-linecap: square"/>
   </g>
   <g id="line2d_2">
    <path d="M 79.2 151.2 
L 1015.2 151.2 
" clip-path="url(#p72ab648a10)" style="fill: none; stroke: #000000; stroke-width: 1.5; stroke-linecap: square"/>
   </g>
   <g id="line2d_3">
    <path d="M 79.2 223.2 
L 1015.2 223.2 
" clip-path="url(#p72ab648a10)" style="fill: none; stroke: #000000; stroke-width: 1.5; stroke-linecap: square"/>
   </g>
   <g id="line2d_4">
    <path d="M 79.2 295.2 
L 1015.2 295.2 
" clip-path="url(#p72ab648a10)" style="fill: none; stroke: #000000; stroke-width: 1.5; stroke-linecap: square"/>
   </g>
   <g id="line2d_5">
    <path d="M 79.2 367.2 
L 1015.2 367.2 
" clip-path="url(#p72ab648a10)" style="fill: none; stroke: #000000; stroke-width: 1.5; stroke-linecap: square"/>
   </g>
   <g id="line2d_6">
    <path d="M 367.2 151.2 
L 367.2 295.2 
" clip-path="url(#p72ab648a10)" style="fill: none; stroke: #000000; stroke-width: 1.5; stroke-linecap: square"/>
   </g>
   <g id="line2d_7">
    <path d="M 439.2 151.2 
L 439.2 295.2 
" clip-path="url(#p72ab648a10)" style="fill: none; stroke: #000000; stroke-width: 1.5; stroke-linecap: square"/>
   </g>
   <g id="line2d_8">
    <path d="M 727.2 151.2 
L 727.2 367.2 
" clip-path="url(#p72ab648a10)" style="fill: none; stroke: #000000; stroke-width: 1.5; stroke-linecap: square"/>
   </g>
   <g id="patch_2">
    <path d="M 1002.6 124.2 
L 1027.8 124.2 
Q 1042.2 124.2 1042.2 138.6 
L 1042.2 163.8 
Q 1042.2 178.2 1027.8 178.2 
L 1002.6 178.2 
Q 988.2 178.2 988.2 163.8 
L 988.2 138.6 
Q 988.2 124.2 1002.6 124.2 
z
" clip-path="url(#p72ab648a10)" style="fill: #ffffff; stroke: #000000; stroke-width: 3; stroke-linejoin: miter"/>
   </g>
   <g id="patch_3">
    <path d="M 1002.6 196.2 
L 1027.8 196.2 
Q 1042.2 196.2 1042.2 210.6 
L 1042.2 235.8 
Q 1042.2 250.2 1027.8 250.2 
L 1002.6 250.2 
Q 988.2 250.2 988.2 235.8 
L 988.2 210.6 
Q 988.2 196.2 1002.6 196.2 
z
" clip-path="url(#p72ab648a10)" style="fill: #ffffff; stroke: #000000; stroke-width: 3; stroke-linejoin: miter"/>
   </g>
   <g id="patch_4">
    <path d="M 1002.6 268.2 
L 1027.8 268.2 
Q 1042.2 268.2 1042.2 282.6 
L 1042.2 307.8 
Q 1042.2 322.2 1027.8 322.2 
L 1002.6 322.2 
Q 988.2 322.2 988.2 307.8 
L 988.2 282.6 
Q 988.2 268.2 1002.6 268.2 
z
" clip-path="url(#p72ab648a10)" style="fill: #ffffff; stroke: #000000; stroke-width: 3; stroke-linejoin: miter"/>
   </g>
   <g id="text_1">
    <!-- 3 -->
    <g transform="translate(38.74625 83.063125) scale(0.14 -0.14)">
     <defs>
      <path id="DejaVuSans-33" d="M 2597 2516 
Q 3050 2419 3304 2112 
Q 3559 1806 3559 1356 
Q 3559 666 3084 287 
Q 2609 -91 1734 -91 
Q 1441 -91 1130 -33 
Q 819 25 488 141 
L 488 750 
Q 750 597 1062 519 
Q 1375 441 1716 441 
Q 2309 441 2620 675 
Q 2931 909 2931 1356 
Q 2931 1769 2642 2001 
Q 2353 2234 1838 2234 
L 1294 2234 
L 1294 2753 
L 1863 2753 
Q 2328 2753 2575 2939 
Q 2822 3125 2822 3475 
Q 2822 3834 2567 4026 
Q 2313 4219 1838 4219 
Q 1578 4219 1281 4162 
Q 984 4106 628 3988 
L 628 4550 
Q 988 4650 1302 4700 
Q 1616 4750 1894 4750 
Q 2613 4750 3031 4423 
Q 3450 4097 3450 3541 
Q 3450 3153 3228 2886 
Q 3006 2619 2597 2516 
z
" transform="scale(0.015625)"/>
     </defs>
     <use xlink:href="#DejaVuSans-33"/>
    </g>
   </g>
   <g id="text_2">
    <!-- 2 -->
    <g transform="translate(38.74625 155.063125) scale(0.14 -0.14)">
     <defs>
      <path id="DejaVuSans-32" d="M 1228 531 
L 3431 531 
L 3431 0 
L 469 0 
L 469 531 
Q 828 903 1448 1529 
Q 2069 2156 2228 2338 
Q 2531 2678 2651 2914 
Q 2772 3150 2772 3378 
Q 2772 3750 2511 3984 
Q 2250 4219 1831 4219 
Q 1534 4219 1204 4116 
Q 875 4013 500 3803 
L 500 4441 
Q 881 4594 1212 4672 
Q 1544 4750 1819 4750 
Q 2544 4750 2975 4387 
Q 3406 4025 3406 3419 
Q 3406 3131 3298 2873 
Q 3191 2616 2906 2266 
Q 2828 2175 2409 1742 
Q 1991 1309 1228 531 
z
" transform="scale(0.015625)"/>
     </defs>
     <use xlink:href="#DejaVuSans-32"/>
    </g>
   </g>
   <g id="text_3">
    <!-- 0 -->
    <g transform="translate(38.74625 227.063125) scale(0.14 -0.14)">
     <defs>
      <path id="DejaVuSans-30" d="M 2034 4250 
Q 1547 4250 1301 3770 
Q 1056 3291 1056 2328 
Q 1056 1369 1301 889 
Q 1547 409 2034 409 
Q 2525 409 2770 889 
Q 3016 1369 3016 2328 
Q 3016 3291 2770 3770 
Q 2525 4250 2034 4250 
z
M 2034 4750 
Q 2819 4750 3233 4129 
Q 3647 3509 3647 2328 
Q 3647 1150 3233 529 
Q 2819 -91 2034 -91 
Q 1250 -91 836 529 
Q 422 1150 422 2328 
Q 422 3509 836 4129 
Q 1250 4750 2034 4750 
z
" transform="scale(0.015625)"/>
     </defs>
     <use xlink:href="#DejaVuSans-30"/>
    </g>
   </g>
   <g id="text_4">
    <!-- 1 -->
    <g transform="translate(38.74625 299.063125) scale(0.14 -0.14)">
     <defs>
      <path id="DejaVuSans-31" d="M 794 531 
L 1825 531 
L 1825 4091 
L 703 3866 
L 703 4441 
L 1819 4666 
L 2450 4666 
L 2450 531 
L 3481 531 
L 3481 0 
L 794 0 
L 794 531 
z
" transform="scale(0.015625)"/>
     </defs>
     <use xlink:href="#DejaVuSans-31"/>
    </g>
   </g>
   <g id="text_5">
    <!-- 4 -->
    <g transform="translate(38.74625 371.063125) scale(0.14 -0.14)">
     <defs>
      <path id="DejaVuSans-34" d="M 2419 4116 
L 825 1625 
L 2419 1625 
L 2419 4116 
z
M 2253 4666 
L 3047 4666 
L 3047 1625 
L 3713 1625 
L 3713 1100 
L 3047 1100 
L 3047 0 
L 2419 0 
L 2419 1100 
L 313 1100 
L 313 1709 
L 2253 4666 
z
" transform="scale(0.015625)"/>
     </defs>
     <use xlink:href="#DejaVuSans-34"/>
    </g>
   </g>
   <g id="patch_5">
    <path d="M 367.2 288 
C 369.109462 288 370.940975 288.758637 372.291169 290.108831 
C 373.641363 291.459025 374.4 293.290538 374.4 295.2 
C 374.4 297.109462 373.641363 298.940975 372.291169 300.291169 
C 370.940975 301.641363 369.109462 302.4 367.2 302.4 
C 365.290538 302.4 363.459025 301.641363 362.108831 300.291169 
C 360.758637 298.940975 360 297.109462 360 295.2 
C 360 293.290538 360.758637 291.459025 362.108831 290.108831 
C 363.459025 288.758637 365.290538 288 367.2 288 
z
" clip-path="url(#p72ab648a10)" style="stroke: #000000; stroke-width: 3; stroke-linejoin: miter"/>
   </g>
   <g id="patch_6">
    <path d="M 367.2 144 
C 369.109462 144 370.940975 144.758637 372.291169 146.108831 
C 373.641363 147.459025 374.4 149.290538 374.4 151.2 
C 374.4 153.109462 373.641363 154.940975 372.291169 156.291169 
C 370.940975 157.641363 369.109462 158.4 367.2 158.4 
C 365.290538 158.4 363.459025 157.641363 362.108831 156.291169 
C 360.758637 154.940975 360 153.109462 360 151.2 
C 360 149.290538 360.758637 147.459025 362.108831 146.108831 
C 363.459025 144.758637 365.290538 144 367.2 144 
z
" clip-path="url(#p72ab648a10)" style="stroke: #000000; stroke-width: 3; stroke-linejoin: miter"/>
   </g>
   <g id="patch_7">
    <path d="M 439.2 288 
C 441.109462 288 442.940975 288.758637 444.291169 290.108831 
C 445.641363 291.459025 446.4 293.290538 446.4 295.2 
C 446.4 297.109462 445.641363 298.940975 444.291169 300.291169 
C 442.940975 301.641363 441.109462 302.4 439.2 302.4 
C 437.290538 302.4 435.459025 301.641363 434.108831 300.291169 
C 432.758637 298.940975 432 297.109462 432 295.2 
C 432 293.290538 432.758637 291.459025 434.108831 290.108831 
C 435.459025 288.758637 437.290538 288 439.2 288 
z
" clip-path="url(#p72ab648a10)" style="stroke: #000000; stroke-width: 3; stroke-linejoin: miter"/>
   </g>
   <g id="patch_8">
    <path d="M 439.2 144 
C 441.109462 144 442.940975 144.758637 444.291169 146.108831 
C 445.641363 147.459025 446.4 149.290538 446.4 151.2 
C 446.4 153.109462 445.641363 154.940975 444.291169 156.291169 
C 442.940975 157.641363 441.109462 158.4 439.2 158.4 
C 437.290538 158.4 435.459025 157.641363 434.108831 156.291169 
C 432.758637 154.940975 432 153.109462 432 151.2 
C 432 149.290538 432.758637 147.459025 434.108831 146.108831 
C 435.459025 144.758637 437.290538 144 439.2 144 
z
" clip-path="url(#p72ab648a10)" style="stroke: #000000; stroke-width: 3; stroke-linejoin: miter"/>
   </g>
   <g id="patch_9">
    <path d="M 727.2 360 
C 729.109462 360 730.940975 360.758637 732.291169 362.108831 
C 733.641363 363.459025 734.4 365.290538 734.4 367.2 
C 734.4 369.109462 733.641363 370.940975 732.291169 372.291169 
C 730.940975 373.641363 729.109462 374.4 727.2 374.4 
C 725.290538 374.4 723.459025 373.641363 722.108831 372.291169 
C 720.758637 370.940975 720 369.109462 720 367.2 
C 720 365.290538 720.758637 363.459025 722.108831 362.108831 
C 723.459025 360.758637 725.290538 360 727.2 360 
z
" clip-path="url(#p72ab648a10)" style="stroke: #000000; stroke-width: 3; stroke-linejoin: miter"/>
   </g>
   <g id="patch_10">
    <path d="M 727.2 144 
C 729.109462 144 730.940975 144.758637 732.291169 146.108831 
C 733.641363 147.459025 734.4 149.290538 734.4 151.2 
C 734.4 153.109462 733.641363 154.940975 732.291169 156.291169 
C 730.940975 157.641363 729.109462 158.4 727.2 158.4 
C 725.290538 158.4 723.459025 157.641363 722.108831 156.291169 
C 720.758637 154.940975 720 153.109462 720 151.2 
C 720 149.290538 720.758637 147.459025 722.108831 146.108831 
C 723.459025 144.758637 725.290538 144 727.2 144 
z
" clip-path="url(#p72ab648a10)" style="stroke: #000000; stroke-width: 3; stroke-linejoin: miter"/>
   </g>
   <g id="patch_11">
    <path d="M 999 159.3 
C 999 155.363046 1000.707946 151.583311 1003.74487 148.799464 
C 1006.781794 146.015617 1010.905141 144.45 1015.2 144.45 
C 1019.494859 144.45 1023.618206 146.015617 1026.65513 148.799464 
C 1029.692054 151.583311 1031.4 155.363046 1031.4 159.3 
" clip-path="url(#p72ab648a10)" style="fill: none; stroke: #000000; stroke-width: 3; stroke-linejoin: miter"/>
   </g>
   <g id="patch_12">
    <path d="M 999 231.3 
C 999 227.363046 1000.707946 223.583311 1003.74487 220.799464 
C 1006.781794 218.015617 1010.905141 216.45 1015.2 216.45 
C 1019.494859 216.45 1023.618206 218.015617 1026.65513 220.799464 
C 1029.692054 223.583311 1031.4 227.363046 1031.4 231.3 
" clip-path="url(#p72ab648a10)" style="fill: none; stroke: #000000; stroke-width: 3; stroke-linejoin: miter"/>
   </g>
   <g id="patch_13">
    <path d="M 999 303.3 
C 999 299.363046 1000.707946 295.583311 1003.74487 292.799464 
C 1006.781794 290.015617 1010.905141 288.45 1015.2 288.45 
C 1019.494859 288.45 1023.618206 290.015617 1026.65513 292.799464 
C 1029.692054 295.583311 1031.4 299.363046 1031.4 303.3 
" clip-path="url(#p72ab648a10)" style="fill: none; stroke: #000000; stroke-width: 3; stroke-linejoin: miter"/>
   </g>
   <g id="patch_14">
    <path d="M 138.6 52.2 
L 163.8 52.2 
Q 178.2 52.2 178.2 66.6 
L 178.2 91.8 
Q 178.2 106.2 163.8 106.2 
L 138.6 106.2 
Q 124.2 106.2 124.2 91.8 
L 124.2 66.6 
Q 124.2 52.2 138.6 52.2 
z
" clip-path="url(#p72ab648a10)" style="fill: #ffffff; stroke: #000000; stroke-width: 3; stroke-linejoin: miter"/>
   </g>
   <g id="patch_15">
    <path d="M 138.6 124.2 
L 163.8 124.2 
Q 178.2 124.2 178.2 138.6 
L 178.2 163.8 
Q 178.2 178.2 163.8 178.2 
L 138.6 178.2 
Q 124.2 178.2 124.2 163.8 
L 124.2 138.6 
Q 124.2 124.2 138.6 124.2 
z
" clip-path="url(#p72ab648a10)" style="fill: #ffffff; stroke: #000000; stroke-width: 3; stroke-linejoin: miter"/>
   </g>
   <g id="patch_16">
    <path d="M 138.6 196.2 
L 163.8 196.2 
Q 178.2 196.2 178.2 210.6 
L 178.2 235.8 
Q 178.2 250.2 163.8 250.2 
L 138.6 250.2 
Q 124.2 250.2 124.2 235.8 
L 124.2 210.6 
Q 124.2 196.2 138.6 196.2 
z
" clip-path="url(#p72ab648a10)" style="fill: #ffffff; stroke: #000000; stroke-width: 3; stroke-linejoin: miter"/>
   </g>
   <g id="patch_17">
    <path d="M 210.6 52.2 
L 235.8 52.2 
Q 250.2 52.2 250.2 66.6 
L 250.2 91.8 
Q 250.2 106.2 235.8 106.2 
L 210.6 106.2 
Q 196.2 106.2 196.2 91.8 
L 196.2 66.6 
Q 196.2 52.2 210.6 52.2 
z
" clip-path="url(#p72ab648a10)" style="fill: #ffffff; stroke: #000000; stroke-width: 3; stroke-linejoin: miter"/>
   </g>
   <g id="patch_18">
    <path d="M 210.6 124.2 
L 235.8 124.2 
Q 250.2 124.2 250.2 138.6 
L 250.2 163.8 
Q 250.2 178.2 235.8 178.2 
L 210.6 178.2 
Q 196.2 178.2 196.2 163.8 
L 196.2 138.6 
Q 196.2 124.2 210.6 124.2 
z
" clip-path="url(#p72ab648a10)" style="fill: #ffffff; stroke: #000000; stroke-width: 3; stroke-linejoin: miter"/>
   </g>
   <g id="patch_19">
    <path d="M 210.6 196.2 
L 235.8 196.2 
Q 250.2 196.2 250.2 210.6 
L 250.2 235.8 
Q 250.2 250.2 235.8 250.2 
L 210.6 250.2 
Q 196.2 250.2 196.2 235.8 
L 196.2 210.6 
Q 196.2 196.2 210.6 196.2 
z
" clip-path="url(#p72ab648a10)" style="fill: #ffffff; stroke: #000000; stroke-width: 3; stroke-linejoin: miter"/>
   </g>
   <g id="patch_20">
    <path d="M 282.6 52.2 
L 307.8 52.2 
Q 322.2 52.2 322.2 66.6 
L 322.2 91.8 
Q 322.2 106.2 307.8 106.2 
L 282.6 106.2 
Q 268.2 106.2 268.2 91.8 
L 268.2 66.6 
Q 268.2 52.2 282.6 52.2 
z
" clip-path="url(#p72ab648a10)" style="fill: #ffffff; stroke: #000000; stroke-width: 3; stroke-linejoin: miter"/>
   </g>
   <g id="patch_21">
    <path d="M 282.6 124.2 
L 307.8 124.2 
Q 322.2 124.2 322.2 138.6 
L 322.2 163.8 
Q 322.2 178.2 307.8 178.2 
L 282.6 178.2 
Q 268.2 178.2 268.2 163.8 
L 268.2 138.6 
Q 268.2 124.2 282.6 124.2 
z
" clip-path="url(#p72ab648a10)" style="fill: #ffffff; stroke: #000000; stroke-width: 3; stroke-linejoin: miter"/>
   </g>
   <g id="patch_22">
    <path d="M 282.6 196.2 
L 307.8 196.2 
Q 322.2 196.2 322.2 210.6 
L 322.2 235.8 
Q 322.2 250.2 307.8 250.2 
L 282.6 250.2 
Q 268.2 250.2 268.2 235.8 
L 268.2 210.6 
Q 268.2 196.2 282.6 196.2 
z
" clip-path="url(#p72ab648a10)" style="fill: #ffffff; stroke: #000000; stroke-width: 3; stroke-linejoin: miter"/>
   </g>
   <g id="patch_23">
    <path d="M 354.6 52.2 
L 379.8 52.2 
Q 394.2 52.2 394.2 66.6 
L 394.2 91.8 
Q 394.2 106.2 379.8 106.2 
L 354.6 106.2 
Q 340.2 106.2 340.2 91.8 
L 340.2 66.6 
Q 340.2 52.2 354.6 52.2 
z
" clip-path="url(#p72ab648a10)" style="fill: #ffffff; stroke: #000000; stroke-width: 3; stroke-linejoin: miter"/>
   </g>
   <g id="patch_24">
    <path d="M 426.6 52.2 
L 451.8 52.2 
Q 466.2 52.2 466.2 66.6 
L 466.2 91.8 
Q 466.2 106.2 451.8 106.2 
L 426.6 106.2 
Q 412.2 106.2 412.2 91.8 
L 412.2 66.6 
Q 412.2 52.2 426.6 52.2 
z
" clip-path="url(#p72ab648a10)" style="fill: #ffffff; stroke: #000000; stroke-width: 3; stroke-linejoin: miter"/>
   </g>
   <g id="patch_25">
    <path d="M 498.6 52.2 
L 523.8 52.2 
Q 538.2 52.2 538.2 66.6 
L 538.2 91.8 
Q 538.2 106.2 523.8 106.2 
L 498.6 106.2 
Q 484.2 106.2 484.2 91.8 
L 484.2 66.6 
Q 484.2 52.2 498.6 52.2 
z
" clip-path="url(#p72ab648a10)" style="fill: #ffffff; stroke: #000000; stroke-width: 3; stroke-linejoin: miter"/>
   </g>
   <g id="patch_26">
    <path d="M 498.6 196.2 
L 523.8 196.2 
Q 538.2 196.2 538.2 210.6 
L 538.2 235.8 
Q 538.2 250.2 523.8 250.2 
L 498.6 250.2 
Q 484.2 250.2 484.2 235.8 
L 484.2 210.6 
Q 484.2 196.2 498.6 196.2 
z
" clip-path="url(#p72ab648a10)" style="fill: #ffffff; stroke: #000000; stroke-width: 3; stroke-linejoin: miter"/>
   </g>
   <g id="patch_27">
    <path d="M 570.6 196.2 
L 595.8 196.2 
Q 610.2 196.2 610.2 210.6 
L 610.2 235.8 
Q 610.2 250.2 595.8 250.2 
L 570.6 250.2 
Q 556.2 250.2 556.2 235.8 
L 556.2 210.6 
Q 556.2 196.2 570.6 196.2 
z
" clip-path="url(#p72ab648a10)" style="fill: #ffffff; stroke: #000000; stroke-width: 3; stroke-linejoin: miter"/>
   </g>
   <g id="patch_28">
    <path d="M 642.6 196.2 
L 667.8 196.2 
Q 682.2 196.2 682.2 210.6 
L 682.2 235.8 
Q 682.2 250.2 667.8 250.2 
L 642.6 250.2 
Q 628.2 250.2 628.2 235.8 
L 628.2 210.6 
Q 628.2 196.2 642.6 196.2 
z
" clip-path="url(#p72ab648a10)" style="fill: #ffffff; stroke: #000000; stroke-width: 3; stroke-linejoin: miter"/>
   </g>
   <g id="patch_29">
    <path d="M 786.6 268.2 
L 811.8 268.2 
Q 826.2 268.2 826.2 282.6 
L 826.2 307.8 
Q 826.2 322.2 811.8 322.2 
L 786.6 322.2 
Q 772.2 322.2 772.2 307.8 
L 772.2 282.6 
Q 772.2 268.2 786.6 268.2 
z
" clip-path="url(#p72ab648a10)" style="fill: #ffffff; stroke: #000000; stroke-width: 3; stroke-linejoin: miter"/>
   </g>
   <g id="patch_30">
    <path d="M 858.6 268.2 
L 883.8 268.2 
Q 898.2 268.2 898.2 282.6 
L 898.2 307.8 
Q 898.2 322.2 883.8 322.2 
L 858.6 322.2 
Q 844.2 322.2 844.2 307.8 
L 844.2 282.6 
Q 844.2 268.2 858.6 268.2 
z
" clip-path="url(#p72ab648a10)" style="fill: #ffffff; stroke: #000000; stroke-width: 3; stroke-linejoin: miter"/>
   </g>
   <g id="patch_31">
    <path d="M 930.6 268.2 
L 955.8 268.2 
Q 970.2 268.2 970.2 282.6 
L 970.2 307.8 
Q 970.2 322.2 955.8 322.2 
L 930.6 322.2 
Q 916.2 322.2 916.2 307.8 
L 916.2 282.6 
Q 916.2 268.2 930.6 268.2 
z
" clip-path="url(#p72ab648a10)" style="fill: #ffffff; stroke: #000000; stroke-width: 3; stroke-linejoin: miter"/>
   </g>
   <g id="patch_32">
    <path d="M 1028.50927 131.717884 
L 1020.405961 138.663577 
L 1023.26913 140.381478 
L 1007.06913 167.381478 
L 1007.13087 167.418522 
L 1023.33087 140.418522 
L 1026.194039 142.136423 
z
" clip-path="url(#p72ab648a10)" style="fill: #ffffff; stroke: #000000; stroke-width: 3; stroke-linejoin: miter"/>
   </g>
   <g id="patch_33">
    <path d="M 1028.50927 203.717884 
L 1020.405961 210.663577 
L 1023.26913 212.381478 
L 1007.06913 239.381478 
L 1007.13087 239.418522 
L 1023.33087 212.418522 
L 1026.194039 214.136423 
z
" clip-path="url(#p72ab648a10)" style="fill: #ffffff; stroke: #000000; stroke-width: 3; stroke-linejoin: miter"/>
   </g>
   <g id="patch_34">
    <path d="M 1028.50927 275.717884 
L 1020.405961 282.663577 
L 1023.26913 284.381478 
L 1007.06913 311.381478 
L 1007.13087 311.418522 
L 1023.33087 284.418522 
L 1026.194039 286.136423 
z
" clip-path="url(#p72ab648a10)" style="fill: #ffffff; stroke: #000000; stroke-width: 3; stroke-linejoin: miter"/>
   </g>
   <g id="text_6">
    <!-- RZ -->
    <g transform="translate(141.541094 83.063125) scale(0.14 -0.14)">
     <defs>
      <path id="DejaVuSans-52" d="M 2841 2188 
Q 3044 2119 3236 1894 
Q 3428 1669 3622 1275 
L 4263 0 
L 3584 0 
L 2988 1197 
Q 2756 1666 2539 1819 
Q 2322 1972 1947 1972 
L 1259 1972 
L 1259 0 
L 628 0 
L 628 4666 
L 2053 4666 
Q 2853 4666 3247 4331 
Q 3641 3997 3641 3322 
Q 3641 2881 3436 2590 
Q 3231 2300 2841 2188 
z
M 1259 4147 
L 1259 2491 
L 2053 2491 
Q 2509 2491 2742 2702 
Q 2975 2913 2975 3322 
Q 2975 3731 2742 3939 
Q 2509 4147 2053 4147 
L 1259 4147 
z
" transform="scale(0.015625)"/>
      <path id="DejaVuSans-5a" d="M 359 4666 
L 4025 4666 
L 4025 4184 
L 1075 531 
L 4097 531 
L 4097 0 
L 288 0 
L 288 481 
L 3238 4134 
L 359 4134 
L 359 4666 
z
" transform="scale(0.015625)"/>
     </defs>
     <use xlink:href="#DejaVuSans-52"/>
     <use xlink:href="#DejaVuSans-5a" x="69.482422"/>
    </g>
   </g>
   <g id="text_7">
    <!-- RZ -->
    <g transform="translate(141.541094 155.063125) scale(0.14 -0.14)">
     <use xlink:href="#DejaVuSans-52"/>
     <use xlink:href="#DejaVuSans-5a" x="69.482422"/>
    </g>
   </g>
   <g id="text_8">
    <!-- RZ -->
    <g transform="translate(141.541094 227.063125) scale(0.14 -0.14)">
     <use xlink:href="#DejaVuSans-52"/>
     <use xlink:href="#DejaVuSans-5a" x="69.482422"/>
    </g>
   </g>
   <g id="text_9">
    <!-- RX -->
    <g transform="translate(213.541094 83.063125) scale(0.14 -0.14)">
     <defs>
      <path id="DejaVuSans-58" d="M 403 4666 
L 1081 4666 
L 2241 2931 
L 3406 4666 
L 4084 4666 
L 2584 2425 
L 4184 0 
L 3506 0 
L 2194 1984 
L 872 0 
L 191 0 
L 1856 2491 
L 403 4666 
z
" transform="scale(0.015625)"/>
     </defs>
     <use xlink:href="#DejaVuSans-52"/>
     <use xlink:href="#DejaVuSans-58" x="69.482422"/>
    </g>
   </g>
   <g id="text_10">
    <!-- RX -->
    <g transform="translate(213.541094 155.063125) scale(0.14 -0.14)">
     <use xlink:href="#DejaVuSans-52"/>
     <use xlink:href="#DejaVuSans-58" x="69.482422"/>
    </g>
   </g>
   <g id="text_11">
    <!-- RX -->
    <g transform="translate(213.541094 227.063125) scale(0.14 -0.14)">
     <use xlink:href="#DejaVuSans-52"/>
     <use xlink:href="#DejaVuSans-58" x="69.482422"/>
    </g>
   </g>
   <g id="text_12">
    <!-- RZ -->
    <g transform="translate(285.541094 83.063125) scale(0.14 -0.14)">
     <use xlink:href="#DejaVuSans-52"/>
     <use xlink:href="#DejaVuSans-5a" x="69.482422"/>
    </g>
   </g>
   <g id="text_13">
    <!-- RZ -->
    <g transform="translate(285.541094 155.063125) scale(0.14 -0.14)">
     <use xlink:href="#DejaVuSans-52"/>
     <use xlink:href="#DejaVuSans-5a" x="69.482422"/>
    </g>
   </g>
   <g id="text_14">
    <!-- RZ -->
    <g transform="translate(285.541094 227.063125) scale(0.14 -0.14)">
     <use xlink:href="#DejaVuSans-52"/>
     <use xlink:href="#DejaVuSans-5a" x="69.482422"/>
    </g>
   </g>
   <g id="text_15">
    <!-- RZ -->
    <g transform="translate(357.541094 83.063125) scale(0.14 -0.14)">
     <use xlink:href="#DejaVuSans-52"/>
     <use xlink:href="#DejaVuSans-5a" x="69.482422"/>
    </g>
   </g>
   <g id="text_16">
    <!-- RX -->
    <g transform="translate(429.541094 83.063125) scale(0.14 -0.14)">
     <use xlink:href="#DejaVuSans-52"/>
     <use xlink:href="#DejaVuSans-58" x="69.482422"/>
    </g>
   </g>
   <g id="text_17">
    <!-- RZ -->
    <g transform="translate(501.541094 83.063125) scale(0.14 -0.14)">
     <use xlink:href="#DejaVuSans-52"/>
     <use xlink:href="#DejaVuSans-5a" x="69.482422"/>
    </g>
   </g>
   <g id="text_18">
    <!-- RZ -->
    <g transform="translate(501.541094 227.063125) scale(0.14 -0.14)">
     <use xlink:href="#DejaVuSans-52"/>
     <use xlink:href="#DejaVuSans-5a" x="69.482422"/>
    </g>
   </g>
   <g id="text_19">
    <!-- RX -->
    <g transform="translate(573.541094 227.063125) scale(0.14 -0.14)">
     <use xlink:href="#DejaVuSans-52"/>
     <use xlink:href="#DejaVuSans-58" x="69.482422"/>
    </g>
   </g>
   <g id="text_20">
    <!-- RZ -->
    <g transform="translate(645.541094 227.063125) scale(0.14 -0.14)">
     <use xlink:href="#DejaVuSans-52"/>
     <use xlink:href="#DejaVuSans-5a" x="69.482422"/>
    </g>
   </g>
   <g id="text_21">
    <!-- RZ -->
    <g transform="translate(789.541094 299.063125) scale(0.14 -0.14)">
     <use xlink:href="#DejaVuSans-52"/>
     <use xlink:href="#DejaVuSans-5a" x="69.482422"/>
    </g>
   </g>
   <g id="text_22">
    <!-- RX -->
    <g transform="translate(861.541094 299.063125) scale(0.14 -0.14)">
     <use xlink:href="#DejaVuSans-52"/>
     <use xlink:href="#DejaVuSans-58" x="69.482422"/>
    </g>
   </g>
   <g id="text_23">
    <!-- RZ -->
    <g transform="translate(933.541094 299.063125) scale(0.14 -0.14)">
     <use xlink:href="#DejaVuSans-52"/>
     <use xlink:href="#DejaVuSans-5a" x="69.482422"/>
    </g>
   </g>
  </g>
 </g>
 <defs>
  <clipPath id="p72ab648a10">
   <rect x="7.2" y="7.2" width="1080" height="432"/>
  </clipPath>
 </defs>
</svg>
